<mxfile host="app.diagrams.net" modified="2024-01-19T06:06:56.366Z" agent="Mozilla/5.0 (Windows NT 10.0; Win64; x64) AppleWebKit/537.36 (KHTML, like Gecko) Chrome/120.0.0.0 Safari/537.36" etag="NW2TkJ_0nY0ceB6_-hBp" version="22.1.17" type="device" pages="2">
  <diagram name="페이지-1" id="gmc-Qrpo_0oPeLEZf5AC">
    <mxGraphModel dx="1195" dy="622" grid="1" gridSize="10" guides="1" tooltips="1" connect="1" arrows="1" fold="1" page="1" pageScale="1" pageWidth="827" pageHeight="1169" math="0" shadow="0">
      <root>
        <mxCell id="0" />
        <mxCell id="1" parent="0" />
        <mxCell id="UgISehaWLtF-kyERGt2v-1" value="일반사용자" style="shape=umlActor;verticalLabelPosition=bottom;verticalAlign=top;html=1;" vertex="1" parent="1">
          <mxGeometry x="90" y="170" width="30" height="60" as="geometry" />
        </mxCell>
        <mxCell id="UgISehaWLtF-kyERGt2v-2" value="사업자 사용자&lt;br&gt;" style="shape=umlActor;verticalLabelPosition=bottom;verticalAlign=top;html=1;" vertex="1" parent="1">
          <mxGeometry x="670" y="170" width="30" height="60" as="geometry" />
        </mxCell>
        <mxCell id="UgISehaWLtF-kyERGt2v-5" value="" style="endArrow=open;endFill=1;endSize=12;html=1;rounded=0;" edge="1" parent="1">
          <mxGeometry width="160" relative="1" as="geometry">
            <mxPoint x="25" y="80" as="sourcePoint" />
            <mxPoint x="185" y="80" as="targetPoint" />
          </mxGeometry>
        </mxCell>
        <mxCell id="UgISehaWLtF-kyERGt2v-6" value="Actor" style="shape=umlActor;verticalLabelPosition=bottom;verticalAlign=top;html=1;" vertex="1" parent="1">
          <mxGeometry x="180" y="220" width="30" height="60" as="geometry" />
        </mxCell>
        <mxCell id="UgISehaWLtF-kyERGt2v-7" value="Use Case" style="ellipse;whiteSpace=wrap;html=1;" vertex="1" parent="1">
          <mxGeometry x="240" y="220" width="140" height="70" as="geometry" />
        </mxCell>
        <mxCell id="UgISehaWLtF-kyERGt2v-8" value="" style="endArrow=open;endFill=1;endSize=12;html=1;rounded=0;" edge="1" parent="1">
          <mxGeometry width="160" relative="1" as="geometry">
            <mxPoint x="180" y="340" as="sourcePoint" />
            <mxPoint x="340" y="340" as="targetPoint" />
          </mxGeometry>
        </mxCell>
        <mxCell id="UgISehaWLtF-kyERGt2v-9" value="&amp;lt;&amp;lt;include&amp;gt;&amp;gt;" style="endArrow=open;endSize=12;dashed=1;html=1;rounded=0;" edge="1" parent="1">
          <mxGeometry y="20" width="160" relative="1" as="geometry">
            <mxPoint x="180" y="420" as="sourcePoint" />
            <mxPoint x="340" y="420" as="targetPoint" />
            <Array as="points" />
            <mxPoint as="offset" />
          </mxGeometry>
        </mxCell>
        <mxCell id="UgISehaWLtF-kyERGt2v-10" value="&amp;lt;&amp;lt;extend&amp;gt;&amp;gt;" style="endArrow=open;endSize=12;dashed=1;html=1;rounded=0;" edge="1" parent="1">
          <mxGeometry y="20" width="160" relative="1" as="geometry">
            <mxPoint x="180" y="460" as="sourcePoint" />
            <mxPoint x="340" y="460" as="targetPoint" />
            <Array as="points" />
            <mxPoint as="offset" />
          </mxGeometry>
        </mxCell>
        <mxCell id="UgISehaWLtF-kyERGt2v-11" value="" style="endArrow=block;endSize=16;endFill=0;html=1;rounded=0;" edge="1" parent="1">
          <mxGeometry y="20" width="160" relative="1" as="geometry">
            <mxPoint x="180" y="500" as="sourcePoint" />
            <mxPoint x="340" y="500" as="targetPoint" />
            <mxPoint as="offset" />
          </mxGeometry>
        </mxCell>
        <mxCell id="UgISehaWLtF-kyERGt2v-12" value="규칙 1. 연관 관계(실선 화살표)는&lt;br&gt;액터 -&amp;gt; 유스케이스&lt;br&gt;유스케이스 -&amp;gt; 액터&lt;br&gt;위 형식만 가능하다.&lt;br&gt;" style="text;html=1;align=center;verticalAlign=middle;resizable=0;points=[];autosize=1;strokeColor=none;fillColor=none;" vertex="1" parent="1">
          <mxGeometry x="120" y="540" width="200" height="70" as="geometry" />
        </mxCell>
        <mxCell id="UgISehaWLtF-kyERGt2v-13" value="Actor" style="shape=umlActor;verticalLabelPosition=bottom;verticalAlign=top;html=1;" vertex="1" parent="1">
          <mxGeometry x="140" y="625" width="30" height="60" as="geometry" />
        </mxCell>
        <mxCell id="UgISehaWLtF-kyERGt2v-14" value="Use Case" style="ellipse;whiteSpace=wrap;html=1;" vertex="1" parent="1">
          <mxGeometry x="300" y="620" width="120" height="70" as="geometry" />
        </mxCell>
        <mxCell id="UgISehaWLtF-kyERGt2v-15" value="" style="endArrow=open;endFill=1;endSize=12;html=1;rounded=0;exitX=0.5;exitY=0.5;exitDx=0;exitDy=0;exitPerimeter=0;entryX=0;entryY=0.5;entryDx=0;entryDy=0;" edge="1" parent="1" source="UgISehaWLtF-kyERGt2v-13" target="UgISehaWLtF-kyERGt2v-14">
          <mxGeometry width="160" relative="1" as="geometry">
            <mxPoint x="170" y="654.71" as="sourcePoint" />
            <mxPoint x="330" y="654.71" as="targetPoint" />
          </mxGeometry>
        </mxCell>
        <mxCell id="UgISehaWLtF-kyERGt2v-16" value="Use Case" style="ellipse;whiteSpace=wrap;html=1;" vertex="1" parent="1">
          <mxGeometry x="130" y="740" width="110" height="70" as="geometry" />
        </mxCell>
        <mxCell id="UgISehaWLtF-kyERGt2v-17" value="" style="endArrow=open;endFill=1;endSize=12;html=1;rounded=0;exitX=1;exitY=0.424;exitDx=0;exitDy=0;entryX=0.5;entryY=0.5;entryDx=0;entryDy=0;exitPerimeter=0;entryPerimeter=0;" edge="1" parent="1" source="UgISehaWLtF-kyERGt2v-16" target="UgISehaWLtF-kyERGt2v-18">
          <mxGeometry width="160" relative="1" as="geometry">
            <mxPoint x="250" y="770" as="sourcePoint" />
            <mxPoint x="395" y="770" as="targetPoint" />
          </mxGeometry>
        </mxCell>
        <mxCell id="UgISehaWLtF-kyERGt2v-18" value="Actor" style="shape=umlActor;verticalLabelPosition=bottom;verticalAlign=top;html=1;" vertex="1" parent="1">
          <mxGeometry x="350" y="740" width="30" height="60" as="geometry" />
        </mxCell>
        <mxCell id="UgISehaWLtF-kyERGt2v-19" value="규칙 2. 포함, 확장 관계는&lt;br&gt;유스케이스 끼리만 가능하다!&lt;br&gt;" style="text;html=1;align=center;verticalAlign=middle;resizable=0;points=[];autosize=1;strokeColor=none;fillColor=none;" vertex="1" parent="1">
          <mxGeometry x="520" y="540" width="180" height="40" as="geometry" />
        </mxCell>
        <mxCell id="UgISehaWLtF-kyERGt2v-20" value="내 정보 조회" style="ellipse;whiteSpace=wrap;html=1;" vertex="1" parent="1">
          <mxGeometry x="530" y="610" width="100" height="60" as="geometry" />
        </mxCell>
        <mxCell id="UgISehaWLtF-kyERGt2v-21" value="로그인" style="ellipse;whiteSpace=wrap;html=1;" vertex="1" parent="1">
          <mxGeometry x="740" y="610" width="100" height="60" as="geometry" />
        </mxCell>
        <mxCell id="UgISehaWLtF-kyERGt2v-22" value="회원가입" style="ellipse;whiteSpace=wrap;html=1;" vertex="1" parent="1">
          <mxGeometry x="530" y="740" width="100" height="60" as="geometry" />
        </mxCell>
        <mxCell id="UgISehaWLtF-kyERGt2v-23" value="프로필 사진 등록" style="ellipse;whiteSpace=wrap;html=1;" vertex="1" parent="1">
          <mxGeometry x="740" y="740" width="100" height="60" as="geometry" />
        </mxCell>
        <mxCell id="UgISehaWLtF-kyERGt2v-24" value="&amp;lt;&amp;lt;include&amp;gt;&amp;gt;" style="endArrow=open;endSize=12;dashed=1;html=1;rounded=0;" edge="1" parent="1">
          <mxGeometry y="20" width="160" relative="1" as="geometry">
            <mxPoint x="630" y="639.71" as="sourcePoint" />
            <mxPoint x="740" y="640" as="targetPoint" />
            <Array as="points" />
            <mxPoint as="offset" />
          </mxGeometry>
        </mxCell>
        <mxCell id="UgISehaWLtF-kyERGt2v-25" value="&amp;lt;&amp;lt;extend&amp;gt;&amp;gt;" style="endArrow=open;endSize=12;dashed=1;html=1;rounded=0;exitX=0;exitY=0.5;exitDx=0;exitDy=0;" edge="1" parent="1" source="UgISehaWLtF-kyERGt2v-23" target="UgISehaWLtF-kyERGt2v-22">
          <mxGeometry y="20" width="160" relative="1" as="geometry">
            <mxPoint x="650" y="740" as="sourcePoint" />
            <mxPoint x="810" y="740" as="targetPoint" />
            <Array as="points" />
            <mxPoint as="offset" />
          </mxGeometry>
        </mxCell>
        <mxCell id="UgISehaWLtF-kyERGt2v-26" value="규칙 3. 일반화 관계는&lt;br&gt;액터끼리 또는 &lt;br&gt;유스케이스 끼리만 가능하다!" style="text;html=1;align=center;verticalAlign=middle;resizable=0;points=[];autosize=1;strokeColor=none;fillColor=none;" vertex="1" parent="1">
          <mxGeometry x="120" y="850" width="180" height="60" as="geometry" />
        </mxCell>
        <mxCell id="UgISehaWLtF-kyERGt2v-27" value="제목 검색" style="ellipse;whiteSpace=wrap;html=1;" vertex="1" parent="1">
          <mxGeometry x="140" y="930" width="100" height="60" as="geometry" />
        </mxCell>
        <mxCell id="UgISehaWLtF-kyERGt2v-28" value="내용 검색" style="ellipse;whiteSpace=wrap;html=1;" vertex="1" parent="1">
          <mxGeometry x="140" y="1030" width="100" height="60" as="geometry" />
        </mxCell>
        <mxCell id="UgISehaWLtF-kyERGt2v-29" value="게시글 검색" style="ellipse;whiteSpace=wrap;html=1;" vertex="1" parent="1">
          <mxGeometry x="370" y="970" width="100" height="60" as="geometry" />
        </mxCell>
        <mxCell id="UgISehaWLtF-kyERGt2v-30" value="" style="endArrow=block;endSize=16;endFill=0;html=1;rounded=0;entryX=0.009;entryY=0.348;entryDx=0;entryDy=0;exitX=1.023;exitY=0.652;exitDx=0;exitDy=0;exitPerimeter=0;entryPerimeter=0;" edge="1" parent="1" source="UgISehaWLtF-kyERGt2v-27" target="UgISehaWLtF-kyERGt2v-29">
          <mxGeometry y="20" width="160" relative="1" as="geometry">
            <mxPoint x="200" y="1020" as="sourcePoint" />
            <mxPoint x="360" y="1020" as="targetPoint" />
            <mxPoint as="offset" />
          </mxGeometry>
        </mxCell>
        <mxCell id="UgISehaWLtF-kyERGt2v-31" value="" style="endArrow=block;endSize=16;endFill=0;html=1;rounded=0;exitX=1;exitY=0.5;exitDx=0;exitDy=0;entryX=0.043;entryY=0.733;entryDx=0;entryDy=0;entryPerimeter=0;" edge="1" parent="1" source="UgISehaWLtF-kyERGt2v-28" target="UgISehaWLtF-kyERGt2v-29">
          <mxGeometry y="20" width="160" relative="1" as="geometry">
            <mxPoint x="220" y="1070" as="sourcePoint" />
            <mxPoint x="370" y="1020" as="targetPoint" />
            <mxPoint as="offset" />
          </mxGeometry>
        </mxCell>
        <mxCell id="UgISehaWLtF-kyERGt2v-32" value="비회원" style="shape=umlActor;verticalLabelPosition=bottom;verticalAlign=top;html=1;" vertex="1" parent="1">
          <mxGeometry x="160" y="1300" width="30" height="60" as="geometry" />
        </mxCell>
        <mxCell id="UgISehaWLtF-kyERGt2v-33" value="회원" style="shape=umlActor;verticalLabelPosition=bottom;verticalAlign=top;html=1;" vertex="1" parent="1">
          <mxGeometry x="160" y="1140" width="30" height="60" as="geometry" />
        </mxCell>
        <mxCell id="UgISehaWLtF-kyERGt2v-34" value="사용자" style="shape=umlActor;verticalLabelPosition=bottom;verticalAlign=top;html=1;" vertex="1" parent="1">
          <mxGeometry x="420" y="1200" width="30" height="60" as="geometry" />
        </mxCell>
        <mxCell id="UgISehaWLtF-kyERGt2v-35" value="" style="endArrow=block;endSize=16;endFill=0;html=1;rounded=0;exitX=1;exitY=0.5;exitDx=0;exitDy=0;" edge="1" parent="1">
          <mxGeometry y="20" width="160" relative="1" as="geometry">
            <mxPoint x="190" y="1186" as="sourcePoint" />
            <mxPoint x="420" y="1230" as="targetPoint" />
            <mxPoint as="offset" />
          </mxGeometry>
        </mxCell>
        <mxCell id="UgISehaWLtF-kyERGt2v-36" value="" style="endArrow=block;endSize=16;endFill=0;html=1;rounded=0;exitX=1;exitY=0.5;exitDx=0;exitDy=0;" edge="1" parent="1" target="UgISehaWLtF-kyERGt2v-34">
          <mxGeometry y="20" width="160" relative="1" as="geometry">
            <mxPoint x="200" y="1339" as="sourcePoint" />
            <mxPoint x="334" y="1293" as="targetPoint" />
            <mxPoint as="offset" />
          </mxGeometry>
        </mxCell>
        <mxCell id="UgISehaWLtF-kyERGt2v-37" value="공지사항 조회" style="ellipse;whiteSpace=wrap;html=1;" vertex="1" parent="1">
          <mxGeometry x="610" y="1210" width="100" height="60" as="geometry" />
        </mxCell>
        <mxCell id="UgISehaWLtF-kyERGt2v-38" value="" style="endArrow=open;endFill=1;endSize=12;html=1;rounded=0;exitX=0.5;exitY=0.5;exitDx=0;exitDy=0;exitPerimeter=0;entryX=-0.037;entryY=0.49;entryDx=0;entryDy=0;entryPerimeter=0;" edge="1" parent="1" target="UgISehaWLtF-kyERGt2v-37">
          <mxGeometry width="160" relative="1" as="geometry">
            <mxPoint x="450" y="1239.71" as="sourcePoint" />
            <mxPoint x="595" y="1239.71" as="targetPoint" />
          </mxGeometry>
        </mxCell>
        <mxCell id="UgISehaWLtF-kyERGt2v-39" value="비회원" style="shape=umlActor;verticalLabelPosition=bottom;verticalAlign=top;html=1;" vertex="1" parent="1">
          <mxGeometry x="150" y="1560" width="30" height="60" as="geometry" />
        </mxCell>
        <mxCell id="UgISehaWLtF-kyERGt2v-40" value="회원가입" style="ellipse;whiteSpace=wrap;html=1;" vertex="1" parent="1">
          <mxGeometry x="300" y="1560" width="100" height="60" as="geometry" />
        </mxCell>
        <mxCell id="UgISehaWLtF-kyERGt2v-41" value="" style="endArrow=open;endFill=1;endSize=12;html=1;rounded=0;exitX=0.5;exitY=0.5;exitDx=0;exitDy=0;exitPerimeter=0;" edge="1" parent="1">
          <mxGeometry width="160" relative="1" as="geometry">
            <mxPoint x="190" y="1589.71" as="sourcePoint" />
            <mxPoint x="300" y="1590" as="targetPoint" />
          </mxGeometry>
        </mxCell>
        <mxCell id="UgISehaWLtF-kyERGt2v-42" value="이메일 인증" style="ellipse;whiteSpace=wrap;html=1;" vertex="1" parent="1">
          <mxGeometry x="510" y="1560" width="100" height="60" as="geometry" />
        </mxCell>
        <mxCell id="UgISehaWLtF-kyERGt2v-43" value="&amp;lt;&amp;lt;include&amp;gt;&amp;gt;" style="endArrow=open;endSize=12;dashed=1;html=1;rounded=0;" edge="1" parent="1">
          <mxGeometry y="20" width="160" relative="1" as="geometry">
            <mxPoint x="400" y="1589.71" as="sourcePoint" />
            <mxPoint x="510" y="1590" as="targetPoint" />
            <Array as="points" />
            <mxPoint as="offset" />
          </mxGeometry>
        </mxCell>
        <mxCell id="UgISehaWLtF-kyERGt2v-44" value="" style="endArrow=open;endFill=1;endSize=12;html=1;rounded=0;exitX=0.5;exitY=0.5;exitDx=0;exitDy=0;exitPerimeter=0;" edge="1" parent="1">
          <mxGeometry width="160" relative="1" as="geometry">
            <mxPoint x="610" y="1590.3500000000001" as="sourcePoint" />
            <mxPoint x="700" y="1590" as="targetPoint" />
          </mxGeometry>
        </mxCell>
        <mxCell id="UgISehaWLtF-kyERGt2v-45" value="Gmail 서버&lt;br&gt;" style="shape=umlActor;verticalLabelPosition=bottom;verticalAlign=top;html=1;" vertex="1" parent="1">
          <mxGeometry x="710" y="1560" width="30" height="60" as="geometry" />
        </mxCell>
        <mxCell id="UgISehaWLtF-kyERGt2v-46" value="프로필 사진 등록" style="ellipse;whiteSpace=wrap;html=1;" vertex="1" parent="1">
          <mxGeometry x="510" y="1660" width="100" height="60" as="geometry" />
        </mxCell>
        <mxCell id="UgISehaWLtF-kyERGt2v-47" value="&amp;lt;&amp;lt;extend&amp;gt;&amp;gt;" style="endArrow=open;endSize=12;dashed=1;html=1;rounded=0;exitX=0;exitY=0.5;exitDx=0;exitDy=0;entryX=0.706;entryY=0.979;entryDx=0;entryDy=0;entryPerimeter=0;" edge="1" parent="1" source="UgISehaWLtF-kyERGt2v-46" target="UgISehaWLtF-kyERGt2v-40">
          <mxGeometry y="20" width="160" relative="1" as="geometry">
            <mxPoint x="380" y="1680" as="sourcePoint" />
            <mxPoint x="360" y="1710" as="targetPoint" />
            <Array as="points" />
            <mxPoint as="offset" />
          </mxGeometry>
        </mxCell>
        <mxCell id="UgISehaWLtF-kyERGt2v-48" value="회원" style="shape=umlActor;verticalLabelPosition=bottom;verticalAlign=top;html=1;" vertex="1" parent="1">
          <mxGeometry x="150" y="1830" width="30" height="60" as="geometry" />
        </mxCell>
        <mxCell id="UgISehaWLtF-kyERGt2v-49" value="사용자" style="shape=umlActor;verticalLabelPosition=bottom;verticalAlign=top;html=1;" vertex="1" parent="1">
          <mxGeometry x="345" y="1730" width="30" height="60" as="geometry" />
        </mxCell>
        <mxCell id="UgISehaWLtF-kyERGt2v-50" value="" style="endArrow=block;endSize=16;endFill=0;html=1;rounded=0;exitX=1;exitY=0.3333333333333333;exitDx=0;exitDy=0;exitPerimeter=0;" edge="1" parent="1" source="UgISehaWLtF-kyERGt2v-48" target="UgISehaWLtF-kyERGt2v-49">
          <mxGeometry y="20" width="160" relative="1" as="geometry">
            <mxPoint x="180" y="1746" as="sourcePoint" />
            <mxPoint x="410" y="1790" as="targetPoint" />
            <mxPoint as="offset" />
          </mxGeometry>
        </mxCell>
        <mxCell id="UgISehaWLtF-kyERGt2v-51" value="공지사항 조회" style="ellipse;whiteSpace=wrap;html=1;" vertex="1" parent="1">
          <mxGeometry x="530" y="1740" width="100" height="60" as="geometry" />
        </mxCell>
        <mxCell id="UgISehaWLtF-kyERGt2v-52" value="" style="endArrow=open;endFill=1;endSize=12;html=1;rounded=0;entryX=-0.037;entryY=0.49;entryDx=0;entryDy=0;entryPerimeter=0;" edge="1" parent="1" target="UgISehaWLtF-kyERGt2v-51">
          <mxGeometry width="160" relative="1" as="geometry">
            <mxPoint x="370" y="1770" as="sourcePoint" />
            <mxPoint x="515" y="1769.71" as="targetPoint" />
          </mxGeometry>
        </mxCell>
        <mxCell id="UgISehaWLtF-kyERGt2v-53" value="" style="endArrow=block;endSize=16;endFill=0;html=1;rounded=0;exitX=0.938;exitY=0.864;exitDx=0;exitDy=0;exitPerimeter=0;entryX=0;entryY=0.3333333333333333;entryDx=0;entryDy=0;entryPerimeter=0;" edge="1" parent="1" source="UgISehaWLtF-kyERGt2v-39" target="UgISehaWLtF-kyERGt2v-49">
          <mxGeometry y="20" width="160" relative="1" as="geometry">
            <mxPoint x="190" y="1860" as="sourcePoint" />
            <mxPoint x="400" y="1780" as="targetPoint" />
            <mxPoint as="offset" />
          </mxGeometry>
        </mxCell>
        <mxCell id="UgISehaWLtF-kyERGt2v-54" value="관리자&lt;br&gt;" style="shape=umlActor;verticalLabelPosition=bottom;verticalAlign=top;html=1;" vertex="1" parent="1">
          <mxGeometry x="150" y="1704" width="30" height="60" as="geometry" />
        </mxCell>
        <mxCell id="UgISehaWLtF-kyERGt2v-55" value="" style="endArrow=block;endSize=16;endFill=0;html=1;rounded=0;" edge="1" parent="1" source="UgISehaWLtF-kyERGt2v-54" target="UgISehaWLtF-kyERGt2v-49">
          <mxGeometry y="20" width="160" relative="1" as="geometry">
            <mxPoint x="180" y="1620" as="sourcePoint" />
            <mxPoint x="345" y="1660" as="targetPoint" />
            <mxPoint as="offset" />
          </mxGeometry>
        </mxCell>
        <mxCell id="UgISehaWLtF-kyERGt2v-56" value="" style="endArrow=open;endFill=1;endSize=12;html=1;rounded=0;" edge="1" parent="1" source="UgISehaWLtF-kyERGt2v-48">
          <mxGeometry width="160" relative="1" as="geometry">
            <mxPoint x="190" y="1881" as="sourcePoint" />
            <mxPoint x="340" y="1900" as="targetPoint" />
          </mxGeometry>
        </mxCell>
        <mxCell id="UgISehaWLtF-kyERGt2v-57" value="마이페이지" style="ellipse;whiteSpace=wrap;html=1;" vertex="1" parent="1">
          <mxGeometry x="340" y="1870" width="100" height="60" as="geometry" />
        </mxCell>
        <mxCell id="UgISehaWLtF-kyERGt2v-58" value="내정보 조회" style="ellipse;whiteSpace=wrap;html=1;" vertex="1" parent="1">
          <mxGeometry x="520" y="1830" width="100" height="50" as="geometry" />
        </mxCell>
        <mxCell id="UgISehaWLtF-kyERGt2v-59" value="내가 좋아요 누른 게시글 조회" style="ellipse;whiteSpace=wrap;html=1;" vertex="1" parent="1">
          <mxGeometry x="520" y="1890" width="100" height="50" as="geometry" />
        </mxCell>
        <mxCell id="UgISehaWLtF-kyERGt2v-60" value="회원 탈퇴" style="ellipse;whiteSpace=wrap;html=1;" vertex="1" parent="1">
          <mxGeometry x="520" y="1950" width="100" height="50" as="geometry" />
        </mxCell>
        <mxCell id="UgISehaWLtF-kyERGt2v-61" value="&amp;lt;&amp;lt;extend&amp;gt;&amp;gt;" style="endArrow=open;endSize=12;dashed=1;html=1;rounded=0;entryX=0.947;entryY=0.203;entryDx=0;entryDy=0;entryPerimeter=0;" edge="1" parent="1" source="UgISehaWLtF-kyERGt2v-58" target="UgISehaWLtF-kyERGt2v-57">
          <mxGeometry y="20" width="160" relative="1" as="geometry">
            <mxPoint x="520" y="1700" as="sourcePoint" />
            <mxPoint x="381" y="1629" as="targetPoint" />
            <Array as="points" />
            <mxPoint as="offset" />
          </mxGeometry>
        </mxCell>
        <mxCell id="UgISehaWLtF-kyERGt2v-62" value="&amp;lt;&amp;lt;extend&amp;gt;&amp;gt;" style="endArrow=open;endSize=12;dashed=1;html=1;rounded=0;entryX=1;entryY=0.5;entryDx=0;entryDy=0;exitX=0.009;exitY=0.382;exitDx=0;exitDy=0;exitPerimeter=0;" edge="1" parent="1" source="UgISehaWLtF-kyERGt2v-59" target="UgISehaWLtF-kyERGt2v-57">
          <mxGeometry y="20" width="160" relative="1" as="geometry">
            <mxPoint x="530" y="1888" as="sourcePoint" />
            <mxPoint x="445" y="1892" as="targetPoint" />
            <Array as="points" />
            <mxPoint as="offset" />
          </mxGeometry>
        </mxCell>
        <mxCell id="UgISehaWLtF-kyERGt2v-63" value="&amp;lt;&amp;lt;extend&amp;gt;&amp;gt;" style="endArrow=open;endSize=12;dashed=1;html=1;rounded=0;entryX=0.906;entryY=0.836;entryDx=0;entryDy=0;entryPerimeter=0;exitX=-0.005;exitY=0.361;exitDx=0;exitDy=0;exitPerimeter=0;" edge="1" parent="1" source="UgISehaWLtF-kyERGt2v-60" target="UgISehaWLtF-kyERGt2v-57">
          <mxGeometry y="20" width="160" relative="1" as="geometry">
            <mxPoint x="540" y="1898" as="sourcePoint" />
            <mxPoint x="455" y="1902" as="targetPoint" />
            <Array as="points" />
            <mxPoint as="offset" />
          </mxGeometry>
        </mxCell>
        <mxCell id="UgISehaWLtF-kyERGt2v-64" value="" style="endArrow=open;endFill=1;endSize=12;html=1;rounded=0;entryX=0;entryY=0.5;entryDx=0;entryDy=0;" edge="1" parent="1" source="UgISehaWLtF-kyERGt2v-48" target="UgISehaWLtF-kyERGt2v-65">
          <mxGeometry width="160" relative="1" as="geometry">
            <mxPoint x="180" y="1960" as="sourcePoint" />
            <mxPoint x="340" y="1997" as="targetPoint" />
          </mxGeometry>
        </mxCell>
        <mxCell id="UgISehaWLtF-kyERGt2v-65" value="자유 게시판 목록 조회" style="ellipse;whiteSpace=wrap;html=1;" vertex="1" parent="1">
          <mxGeometry x="330" y="2020" width="140" height="60" as="geometry" />
        </mxCell>
        <mxCell id="UgISehaWLtF-kyERGt2v-66" value="" style="endArrow=open;endFill=1;endSize=12;html=1;rounded=0;entryX=0;entryY=0.5;entryDx=0;entryDy=0;exitX=1;exitY=1;exitDx=0;exitDy=0;exitPerimeter=0;" edge="1" parent="1" source="UgISehaWLtF-kyERGt2v-48" target="UgISehaWLtF-kyERGt2v-67">
          <mxGeometry width="160" relative="1" as="geometry">
            <mxPoint x="180" y="1950" as="sourcePoint" />
            <mxPoint x="340" y="2070" as="targetPoint" />
          </mxGeometry>
        </mxCell>
        <mxCell id="UgISehaWLtF-kyERGt2v-67" value="자유 게시판 상세 조회" style="ellipse;whiteSpace=wrap;html=1;" vertex="1" parent="1">
          <mxGeometry x="330" y="2093" width="140" height="60" as="geometry" />
        </mxCell>
        <mxCell id="UgISehaWLtF-kyERGt2v-68" value="" style="endArrow=open;endFill=1;endSize=12;html=1;rounded=0;entryX=0;entryY=0.5;entryDx=0;entryDy=0;" edge="1" parent="1" source="UgISehaWLtF-kyERGt2v-48" target="UgISehaWLtF-kyERGt2v-69">
          <mxGeometry width="160" relative="1" as="geometry">
            <mxPoint x="170" y="2040" as="sourcePoint" />
            <mxPoint x="330" y="2160" as="targetPoint" />
          </mxGeometry>
        </mxCell>
        <mxCell id="UgISehaWLtF-kyERGt2v-69" value="자유 게시판 글 작성" style="ellipse;whiteSpace=wrap;html=1;" vertex="1" parent="1">
          <mxGeometry x="330" y="2170" width="140" height="60" as="geometry" />
        </mxCell>
        <mxCell id="UgISehaWLtF-kyERGt2v-70" value="게시글 수정" style="ellipse;whiteSpace=wrap;html=1;" vertex="1" parent="1">
          <mxGeometry x="544" y="2060" width="100" height="50" as="geometry" />
        </mxCell>
        <mxCell id="UgISehaWLtF-kyERGt2v-71" value="게시글 삭제" style="ellipse;whiteSpace=wrap;html=1;" vertex="1" parent="1">
          <mxGeometry x="544" y="2130" width="100" height="50" as="geometry" />
        </mxCell>
        <mxCell id="UgISehaWLtF-kyERGt2v-72" value="&amp;lt;&amp;lt;extend&amp;gt;&amp;gt;" style="endArrow=open;endSize=12;dashed=1;html=1;rounded=0;entryX=0.994;entryY=0.291;entryDx=0;entryDy=0;entryPerimeter=0;exitX=0;exitY=0.5;exitDx=0;exitDy=0;" edge="1" parent="1" source="UgISehaWLtF-kyERGt2v-70" target="UgISehaWLtF-kyERGt2v-67">
          <mxGeometry y="20" width="160" relative="1" as="geometry">
            <mxPoint x="530" y="1978" as="sourcePoint" />
            <mxPoint x="441" y="1930" as="targetPoint" />
            <Array as="points" />
            <mxPoint as="offset" />
          </mxGeometry>
        </mxCell>
        <mxCell id="UgISehaWLtF-kyERGt2v-73" value="&amp;lt;&amp;lt;extend&amp;gt;&amp;gt;" style="endArrow=open;endSize=12;dashed=1;html=1;rounded=0;entryX=1.014;entryY=0.625;entryDx=0;entryDy=0;entryPerimeter=0;exitX=0;exitY=0.5;exitDx=0;exitDy=0;" edge="1" parent="1" source="UgISehaWLtF-kyERGt2v-71" target="UgISehaWLtF-kyERGt2v-67">
          <mxGeometry y="20" width="160" relative="1" as="geometry">
            <mxPoint x="554" y="2095" as="sourcePoint" />
            <mxPoint x="479" y="2120" as="targetPoint" />
            <Array as="points" />
            <mxPoint as="offset" />
          </mxGeometry>
        </mxCell>
        <mxCell id="UgISehaWLtF-kyERGt2v-74" value="" style="endArrow=open;endFill=1;endSize=12;html=1;rounded=0;entryX=0.5;entryY=0;entryDx=0;entryDy=0;" edge="1" parent="1" source="UgISehaWLtF-kyERGt2v-48" target="UgISehaWLtF-kyERGt2v-75">
          <mxGeometry width="160" relative="1" as="geometry">
            <mxPoint y="2140" as="sourcePoint" />
            <mxPoint x="160" y="2177" as="targetPoint" />
          </mxGeometry>
        </mxCell>
        <mxCell id="UgISehaWLtF-kyERGt2v-75" value="로그인" style="ellipse;whiteSpace=wrap;html=1;" vertex="1" parent="1">
          <mxGeometry x="120" y="2070" width="100" height="60" as="geometry" />
        </mxCell>
      </root>
    </mxGraphModel>
  </diagram>
  <diagram id="PN_mgTyxs4Ys48rQDOIU" name="페이지-2">
    <mxGraphModel dx="1195" dy="1791" grid="1" gridSize="10" guides="1" tooltips="1" connect="1" arrows="1" fold="1" page="1" pageScale="1" pageWidth="827" pageHeight="1169" math="0" shadow="0">
      <root>
        <mxCell id="0" />
        <mxCell id="1" parent="0" />
        <mxCell id="5JvaNTYWP-mL_c2x8LOT-1" value="일반사용자" style="shape=umlActor;verticalLabelPosition=bottom;verticalAlign=top;html=1;" vertex="1" parent="1">
          <mxGeometry x="90" y="170" width="30" height="60" as="geometry" />
        </mxCell>
        <mxCell id="5JvaNTYWP-mL_c2x8LOT-2" value="사업자 사용자&lt;br&gt;" style="shape=umlActor;verticalLabelPosition=bottom;verticalAlign=top;html=1;" vertex="1" parent="1">
          <mxGeometry x="670" y="170" width="30" height="60" as="geometry" />
        </mxCell>
        <mxCell id="5JvaNTYWP-mL_c2x8LOT-3" value="Actor" style="shape=umlActor;verticalLabelPosition=bottom;verticalAlign=top;html=1;" vertex="1" parent="1">
          <mxGeometry x="40" y="-230" width="30" height="60" as="geometry" />
        </mxCell>
        <mxCell id="5JvaNTYWP-mL_c2x8LOT-4" value="Use Case" style="ellipse;whiteSpace=wrap;html=1;" vertex="1" parent="1">
          <mxGeometry x="100" y="-230" width="140" height="70" as="geometry" />
        </mxCell>
        <mxCell id="5JvaNTYWP-mL_c2x8LOT-5" value="" style="endArrow=open;endFill=1;endSize=12;html=1;rounded=0;" edge="1" parent="1">
          <mxGeometry width="160" relative="1" as="geometry">
            <mxPoint x="40" y="-110" as="sourcePoint" />
            <mxPoint x="200" y="-110" as="targetPoint" />
          </mxGeometry>
        </mxCell>
        <mxCell id="5JvaNTYWP-mL_c2x8LOT-6" value="&amp;lt;&amp;lt;include&amp;gt;&amp;gt;" style="endArrow=open;endSize=12;dashed=1;html=1;rounded=0;" edge="1" parent="1">
          <mxGeometry y="20" width="160" relative="1" as="geometry">
            <mxPoint x="40" y="-30" as="sourcePoint" />
            <mxPoint x="200" y="-30" as="targetPoint" />
            <Array as="points" />
            <mxPoint as="offset" />
          </mxGeometry>
        </mxCell>
        <mxCell id="5JvaNTYWP-mL_c2x8LOT-7" value="&amp;lt;&amp;lt;extend&amp;gt;&amp;gt;" style="endArrow=open;endSize=12;dashed=1;html=1;rounded=0;" edge="1" parent="1">
          <mxGeometry y="20" width="160" relative="1" as="geometry">
            <mxPoint x="40" y="10" as="sourcePoint" />
            <mxPoint x="200" y="10" as="targetPoint" />
            <Array as="points" />
            <mxPoint as="offset" />
          </mxGeometry>
        </mxCell>
        <mxCell id="5JvaNTYWP-mL_c2x8LOT-8" value="" style="endArrow=block;endSize=16;endFill=0;html=1;rounded=0;entryX=0.434;entryY=0.766;entryDx=0;entryDy=0;entryPerimeter=0;" edge="1" parent="1" target="5JvaNTYWP-mL_c2x8LOT-10">
          <mxGeometry y="20" width="160" relative="1" as="geometry">
            <mxPoint x="140" y="210" as="sourcePoint" />
            <mxPoint x="300" y="210" as="targetPoint" />
            <mxPoint as="offset" />
          </mxGeometry>
        </mxCell>
        <mxCell id="5JvaNTYWP-mL_c2x8LOT-9" value="" style="endArrow=block;endSize=16;endFill=0;html=1;rounded=0;entryX=0.664;entryY=0.709;entryDx=0;entryDy=0;entryPerimeter=0;" edge="1" parent="1" target="5JvaNTYWP-mL_c2x8LOT-10">
          <mxGeometry y="20" width="160" relative="1" as="geometry">
            <mxPoint x="650" y="210" as="sourcePoint" />
            <mxPoint x="420" y="190" as="targetPoint" />
            <mxPoint as="offset" />
          </mxGeometry>
        </mxCell>
        <mxCell id="5JvaNTYWP-mL_c2x8LOT-10" value="사용자" style="shape=umlActor;verticalLabelPosition=bottom;verticalAlign=top;html=1;" vertex="1" parent="1">
          <mxGeometry x="384" y="170" width="30" height="60" as="geometry" />
        </mxCell>
        <mxCell id="5JvaNTYWP-mL_c2x8LOT-19" value="" style="endArrow=open;endFill=1;endSize=12;html=1;rounded=0;exitX=0.677;exitY=-0.056;exitDx=0;exitDy=0;exitPerimeter=0;" edge="1" parent="1" source="5JvaNTYWP-mL_c2x8LOT-2">
          <mxGeometry width="160" relative="1" as="geometry">
            <mxPoint x="605" y="70" as="sourcePoint" />
            <mxPoint x="690" y="60" as="targetPoint" />
          </mxGeometry>
        </mxCell>
        <mxCell id="5JvaNTYWP-mL_c2x8LOT-20" value="호텔 정보 등록" style="ellipse;whiteSpace=wrap;html=1;" vertex="1" parent="1">
          <mxGeometry x="785" width="95" height="50" as="geometry" />
        </mxCell>
        <mxCell id="5JvaNTYWP-mL_c2x8LOT-21" value="" style="endArrow=open;endFill=1;endSize=12;html=1;rounded=0;exitX=0.677;exitY=-0.056;exitDx=0;exitDy=0;exitPerimeter=0;entryX=1;entryY=0;entryDx=0;entryDy=0;" edge="1" parent="1" target="5JvaNTYWP-mL_c2x8LOT-22">
          <mxGeometry width="160" relative="1" as="geometry">
            <mxPoint x="384" y="220" as="sourcePoint" />
            <mxPoint x="333.0000000000009" y="280" as="targetPoint" />
          </mxGeometry>
        </mxCell>
        <mxCell id="5JvaNTYWP-mL_c2x8LOT-22" value="로그인" style="ellipse;whiteSpace=wrap;html=1;" vertex="1" parent="1">
          <mxGeometry x="230" y="270" width="91" height="60" as="geometry" />
        </mxCell>
        <mxCell id="5JvaNTYWP-mL_c2x8LOT-23" value="" style="endArrow=block;endSize=16;endFill=0;html=1;rounded=0;" edge="1" parent="1" source="5JvaNTYWP-mL_c2x8LOT-27" target="5JvaNTYWP-mL_c2x8LOT-22">
          <mxGeometry y="20" width="160" relative="1" as="geometry">
            <mxPoint x="230" y="320" as="sourcePoint" />
            <mxPoint x="329" y="350" as="targetPoint" />
            <mxPoint as="offset" />
          </mxGeometry>
        </mxCell>
        <mxCell id="5JvaNTYWP-mL_c2x8LOT-25" value="" style="endArrow=block;endSize=16;endFill=0;html=1;rounded=0;exitX=0.939;exitY=0.249;exitDx=0;exitDy=0;exitPerimeter=0;entryX=0.019;entryY=0.737;entryDx=0;entryDy=0;entryPerimeter=0;" edge="1" parent="1" source="5JvaNTYWP-mL_c2x8LOT-28" target="5JvaNTYWP-mL_c2x8LOT-22">
          <mxGeometry y="20" width="160" relative="1" as="geometry">
            <mxPoint x="232" y="374" as="sourcePoint" />
            <mxPoint x="339" y="360" as="targetPoint" />
            <mxPoint as="offset" />
          </mxGeometry>
        </mxCell>
        <mxCell id="5JvaNTYWP-mL_c2x8LOT-26" value="" style="endArrow=block;endSize=16;endFill=0;html=1;rounded=0;entryX=0;entryY=1;entryDx=0;entryDy=0;" edge="1" parent="1" source="5JvaNTYWP-mL_c2x8LOT-29" target="5JvaNTYWP-mL_c2x8LOT-22">
          <mxGeometry y="20" width="160" relative="1" as="geometry">
            <mxPoint x="270" y="410" as="sourcePoint" />
            <mxPoint x="347" y="370" as="targetPoint" />
            <mxPoint as="offset" />
          </mxGeometry>
        </mxCell>
        <mxCell id="5JvaNTYWP-mL_c2x8LOT-27" value="구글" style="ellipse;whiteSpace=wrap;html=1;" vertex="1" parent="1">
          <mxGeometry x="55" y="290" width="100" height="60" as="geometry" />
        </mxCell>
        <mxCell id="5JvaNTYWP-mL_c2x8LOT-28" value="카카오톡&lt;br&gt;" style="ellipse;whiteSpace=wrap;html=1;" vertex="1" parent="1">
          <mxGeometry x="55" y="360" width="100" height="60" as="geometry" />
        </mxCell>
        <mxCell id="5JvaNTYWP-mL_c2x8LOT-29" value="페이스북" style="ellipse;whiteSpace=wrap;html=1;" vertex="1" parent="1">
          <mxGeometry x="100" y="410" width="100" height="60" as="geometry" />
        </mxCell>
        <mxCell id="5JvaNTYWP-mL_c2x8LOT-30" value="" style="endArrow=open;endFill=1;endSize=12;html=1;rounded=0;entryX=0.261;entryY=0.007;entryDx=0;entryDy=0;entryPerimeter=0;" edge="1" parent="1" target="5JvaNTYWP-mL_c2x8LOT-35">
          <mxGeometry width="160" relative="1" as="geometry">
            <mxPoint x="420" y="230" as="sourcePoint" />
            <mxPoint x="570" y="340" as="targetPoint" />
          </mxGeometry>
        </mxCell>
        <mxCell id="5JvaNTYWP-mL_c2x8LOT-31" value="호텔방 예약" style="ellipse;whiteSpace=wrap;html=1;" vertex="1" parent="1">
          <mxGeometry x="510" y="460" width="91" height="60" as="geometry" />
        </mxCell>
        <mxCell id="5JvaNTYWP-mL_c2x8LOT-33" value="카테고리선택" style="ellipse;whiteSpace=wrap;html=1;" vertex="1" parent="1">
          <mxGeometry x="660" y="400" width="100" height="60" as="geometry" />
        </mxCell>
        <mxCell id="5JvaNTYWP-mL_c2x8LOT-34" value="검색" style="ellipse;whiteSpace=wrap;html=1;" vertex="1" parent="1">
          <mxGeometry x="635" y="310" width="100" height="60" as="geometry" />
        </mxCell>
        <mxCell id="5JvaNTYWP-mL_c2x8LOT-35" value="호텔방 조회" style="ellipse;whiteSpace=wrap;html=1;" vertex="1" parent="1">
          <mxGeometry x="499" y="310" width="91" height="60" as="geometry" />
        </mxCell>
        <mxCell id="5JvaNTYWP-mL_c2x8LOT-38" value="&amp;lt;&amp;lt;extend&amp;gt;&amp;gt;" style="endArrow=open;endSize=12;dashed=1;html=1;rounded=0;exitX=0.5;exitY=0;exitDx=0;exitDy=0;entryX=0.624;entryY=1.036;entryDx=0;entryDy=0;entryPerimeter=0;" edge="1" parent="1" source="5JvaNTYWP-mL_c2x8LOT-31" target="5JvaNTYWP-mL_c2x8LOT-35">
          <mxGeometry y="20" width="160" relative="1" as="geometry">
            <mxPoint x="50" y="20" as="sourcePoint" />
            <mxPoint x="210" y="20" as="targetPoint" />
            <Array as="points" />
            <mxPoint as="offset" />
          </mxGeometry>
        </mxCell>
        <mxCell id="5JvaNTYWP-mL_c2x8LOT-40" value="" style="endArrow=block;endSize=16;endFill=0;html=1;rounded=0;" edge="1" parent="1" source="5JvaNTYWP-mL_c2x8LOT-34">
          <mxGeometry y="20" width="160" relative="1" as="geometry">
            <mxPoint x="240" y="330" as="sourcePoint" />
            <mxPoint x="590" y="340" as="targetPoint" />
            <mxPoint as="offset" />
          </mxGeometry>
        </mxCell>
        <mxCell id="5JvaNTYWP-mL_c2x8LOT-41" value="" style="endArrow=block;endSize=16;endFill=0;html=1;rounded=0;" edge="1" parent="1" source="5JvaNTYWP-mL_c2x8LOT-33" target="5JvaNTYWP-mL_c2x8LOT-35">
          <mxGeometry y="20" width="160" relative="1" as="geometry">
            <mxPoint x="645" y="350" as="sourcePoint" />
            <mxPoint x="600" y="350" as="targetPoint" />
            <mxPoint as="offset" />
          </mxGeometry>
        </mxCell>
        <mxCell id="5JvaNTYWP-mL_c2x8LOT-42" value="" style="endArrow=open;endFill=1;endSize=12;html=1;rounded=0;exitX=0.25;exitY=0.1;exitDx=0;exitDy=0;exitPerimeter=0;" edge="1" parent="1" source="5JvaNTYWP-mL_c2x8LOT-2">
          <mxGeometry width="160" relative="1" as="geometry">
            <mxPoint x="700" y="177" as="sourcePoint" />
            <mxPoint x="600" y="80" as="targetPoint" />
          </mxGeometry>
        </mxCell>
        <mxCell id="5JvaNTYWP-mL_c2x8LOT-43" value="호텔방 수정" style="ellipse;whiteSpace=wrap;html=1;" vertex="1" parent="1">
          <mxGeometry x="530" y="30" width="95" height="50" as="geometry" />
        </mxCell>
        <mxCell id="5JvaNTYWP-mL_c2x8LOT-44" value="" style="endArrow=open;endFill=1;endSize=12;html=1;rounded=0;" edge="1" parent="1" source="5JvaNTYWP-mL_c2x8LOT-2">
          <mxGeometry width="160" relative="1" as="geometry">
            <mxPoint x="577" y="196" as="sourcePoint" />
            <mxPoint x="500" y="100" as="targetPoint" />
          </mxGeometry>
        </mxCell>
        <mxCell id="5JvaNTYWP-mL_c2x8LOT-45" value="호텔방&amp;nbsp;등록" style="ellipse;whiteSpace=wrap;html=1;" vertex="1" parent="1">
          <mxGeometry x="430" y="50" width="95" height="50" as="geometry" />
        </mxCell>
        <mxCell id="5JvaNTYWP-mL_c2x8LOT-46" value="" style="endArrow=open;endFill=1;endSize=12;html=1;rounded=0;exitX=0.769;exitY=-0.021;exitDx=0;exitDy=0;exitPerimeter=0;" edge="1" parent="1" source="5JvaNTYWP-mL_c2x8LOT-2">
          <mxGeometry width="160" relative="1" as="geometry">
            <mxPoint x="990" y="142" as="sourcePoint" />
            <mxPoint x="820" y="50" as="targetPoint" />
          </mxGeometry>
        </mxCell>
        <mxCell id="5JvaNTYWP-mL_c2x8LOT-47" value="호텔방 삭제" style="ellipse;whiteSpace=wrap;html=1;" vertex="1" parent="1">
          <mxGeometry x="640" y="10" width="95" height="50" as="geometry" />
        </mxCell>
        <mxCell id="5JvaNTYWP-mL_c2x8LOT-48" value="" style="endArrow=open;endFill=1;endSize=12;html=1;rounded=0;entryX=0.011;entryY=0.237;entryDx=0;entryDy=0;entryPerimeter=0;exitX=1;exitY=1;exitDx=0;exitDy=0;exitPerimeter=0;" edge="1" parent="1" source="5JvaNTYWP-mL_c2x8LOT-10" target="5JvaNTYWP-mL_c2x8LOT-31">
          <mxGeometry width="160" relative="1" as="geometry">
            <mxPoint x="420" y="240" as="sourcePoint" />
            <mxPoint x="533" y="320" as="targetPoint" />
          </mxGeometry>
        </mxCell>
        <mxCell id="5JvaNTYWP-mL_c2x8LOT-49" value="호텔방 결제" style="ellipse;whiteSpace=wrap;html=1;" vertex="1" parent="1">
          <mxGeometry x="414" y="473.68" width="91" height="60" as="geometry" />
        </mxCell>
        <mxCell id="5JvaNTYWP-mL_c2x8LOT-50" value="" style="endArrow=open;endFill=1;endSize=12;html=1;rounded=0;entryX=0.416;entryY=0.002;entryDx=0;entryDy=0;entryPerimeter=0;exitX=0.624;exitY=0.829;exitDx=0;exitDy=0;exitPerimeter=0;" edge="1" parent="1" target="5JvaNTYWP-mL_c2x8LOT-49" source="5JvaNTYWP-mL_c2x8LOT-10">
          <mxGeometry width="160" relative="1" as="geometry">
            <mxPoint x="428.78999999999996" y="220.00000000000017" as="sourcePoint" />
            <mxPoint x="487.5" y="333.68" as="targetPoint" />
          </mxGeometry>
        </mxCell>
        <mxCell id="5JvaNTYWP-mL_c2x8LOT-51" value="댓글 작성" style="ellipse;whiteSpace=wrap;html=1;" vertex="1" parent="1">
          <mxGeometry x="260" y="490" width="91" height="60" as="geometry" />
        </mxCell>
        <mxCell id="5JvaNTYWP-mL_c2x8LOT-52" value="" style="endArrow=open;endFill=1;endSize=12;html=1;rounded=0;entryX=0.416;entryY=0.002;entryDx=0;entryDy=0;entryPerimeter=0;exitX=0.256;exitY=0.864;exitDx=0;exitDy=0;exitPerimeter=0;" edge="1" parent="1" target="5JvaNTYWP-mL_c2x8LOT-51" source="5JvaNTYWP-mL_c2x8LOT-10">
          <mxGeometry width="160" relative="1" as="geometry">
            <mxPoint x="300" y="210" as="sourcePoint" />
            <mxPoint x="384.5" y="323.68" as="targetPoint" />
          </mxGeometry>
        </mxCell>
        <mxCell id="5JvaNTYWP-mL_c2x8LOT-53" value="&amp;lt;&amp;lt;include&amp;gt;&amp;gt;" style="endArrow=open;endSize=12;dashed=1;html=1;rounded=0;exitX=1;exitY=0.5;exitDx=0;exitDy=0;" edge="1" parent="1" source="5JvaNTYWP-mL_c2x8LOT-51" target="5JvaNTYWP-mL_c2x8LOT-49">
          <mxGeometry y="20" width="160" relative="1" as="geometry">
            <mxPoint x="270" y="550" as="sourcePoint" />
            <mxPoint x="430" y="550" as="targetPoint" />
            <Array as="points" />
            <mxPoint as="offset" />
          </mxGeometry>
        </mxCell>
      </root>
    </mxGraphModel>
  </diagram>
</mxfile>
